<?xml version="1.0" encoding="UTF-8"?>
<svg width="533.3333333333333" height="533.3333333333333" xmlns="http://www.w3.org/2000/svg" xmlns:svg="http://www.w3.org/2000/svg">
 <g>
  <title>Layer 1</title>
  <path d="m381.25,185.07599a146.875,176.32598 0 1 0 -293.75,0a146.875,176.32598 0 1 0 293.75,0l-146.875,0l146.875,0z" id="path1044" stroke-width="1pt" fill-rule="evenodd" fill="#ffff00"/>
  <path d="m227.5,360.75133c0,0.65065 0,7.15714 0,8.45844c0,1.3013 3.125,-3.25325 -3.125,5.20519c-6.25,8.45845 -11.875,7.15715 -6.875,10.4104c5,3.25324 6.25,0.65064 10,0c3.75,-0.65065 1.875,2.60259 6.25,3.25324c4.375,0.65065 5.625,0.65065 8.75,-1.3013c3.125,-1.95194 -1.25,-3.90389 5.625,-1.95194c6.875,1.95194 8.125,5.85584 10.625,3.90389c2.5,-1.95195 -1.875,0 -1.875,-4.55455c0,-4.55454 -2.5,-9.10909 -3.75,-9.75974c-1.25,-0.65065 -6.25,-1.3013 -6.25,-7.15714c0,-5.85584 -1.25,-7.15714 -1.25,-7.15714c0,0 -15,1.95195 -18.125,0.65065z" id="path1046" stroke-width="1pt" fill-rule="evenodd" fill="#ffff00"/>
  <path d="m249.10148,371l-20.97784,0l22.37636,6.03261l-23.77488,-2.41305c0,0 -12.5867,21.7174 1.39852,43.43479c13.98523,21.71739 18.18079,15.68478 13.98523,36.19565c-4.19557,20.51087 -15.38375,31.36957 -12.58671,36.19565" id="path1047" stroke-width="3.125" fill-rule="evenodd" fill="none" stroke="black"/>
  <path d="m137.5,63.75c0,0 -13.75,31.25 -13.75,47.5c0,16.25 -1.25,18.75 0,18.75c1.25,0 26.25,0 26.25,0c0,0 0,-35 5,-46.25c5,-11.25 10,-20 10,-20c0,0 -27.5,-1.25 -27.5,0z" id="path1053" stroke-width="1pt" fill-rule="evenodd" fill="#ffffff"/>
  <path d="m175,63.75c0,0 -13.75,31.25 -13.75,47.5c0,16.25 -1.25,18.75 0,18.75c1.25,0 26.25,0 26.25,0c0,0 0,-35 5,-46.25c5,-11.25 10,-20 10,-20c0,0 -27.5,-1.25 -27.5,0z" id="path1054" stroke-width="1pt" fill-rule="evenodd" fill="#ffffff"/>
  <path d="m126.02593,137.18797c-2.85021,0 -1.68864,9.33358 -1.68864,16.46197c0.7128,7.12839 0.88347,12.59992 2.13841,12.59992c1.25493,0 25.64078,-2.49998 22.78957,-0.62511c-2.1374,-9.37482 -2.8502,-8.47817 -2.10628,-14.66298c0.74292,-6.81035 1.48684,-13.7738 1.48684,-13.7738c0,0 -23.3317,-0.54834 -22.6199,0z" id="path1055" stroke-width="1pt" fill-rule="evenodd" fill="#ffffff"/>
  <path d="m162.90093,134.68797c-2.85021,0 -1.68864,9.33358 -1.68864,16.46197c0.7128,7.12839 0.88347,12.59992 2.13841,12.59992c1.25493,0 25.64078,-2.49998 22.78957,-0.62511c-2.1374,-9.37482 -2.8502,-8.47817 -2.10628,-14.66298c0.74292,-6.81035 1.48684,-13.7738 1.48684,-13.7738c0,0 -23.3317,-0.54834 -22.6199,0z" id="path1056" stroke-width="1pt" fill-rule="evenodd" fill="#ffffff"/>
 </g>
</svg>